<?xml version="1.0" encoding="UTF-8"?>
<svg xmlns="http://www.w3.org/2000/svg" width="165" height="28" viewBox="0 0 165 28" fill="none">
  <path d="M0 8.57191V3.80859H5.62937L14.2899 15.5004L9.86831 21.5052L0 8.57191Z" fill="#0078FF"></path>
  <path d="M0 22.4593V27.2227H5.62937L14.2899 15.5309L9.93936 9.64103L0 22.4593Z" fill="#FF0000"></path>
  <path d="M5.30859 15.5138L9.94335 9.63086L14.3014 15.5123L9.74824 21.6489L5.30859 15.5138Z" fill="#FF58BC"></path>
  <path d="M45.5315 18.0989C45.5315 18.5085 45.5315 19.1043 45.4942 19.514H31.678C32.0877 22.1953 34.1731 23.8711 37.0034 23.8711C38.9399 23.8711 40.8392 22.9774 41.733 21.376L44.8612 22.7539C43.3715 25.8449 40.0571 27.2228 36.8172 27.2228C31.9015 27.2228 27.8795 23.6104 27.8795 18.0989C27.8795 12.5873 31.9015 9.08667 36.8172 9.08667C41.733 9.08667 45.5315 12.5873 45.5315 18.0989ZM31.678 16.721H41.7702C41.3606 14.0024 39.4613 12.4383 36.8172 12.4383C34.1359 12.4383 32.0877 14.0396 31.678 16.721Z" fill="#1E1E1E"></path>
  <path d="M64.6259 18.0989C64.6259 18.5085 64.6259 19.1043 64.5887 19.514H50.7725C51.1821 22.1953 53.2676 23.8711 56.0979 23.8711C58.0344 23.8711 59.9336 22.9774 60.8274 21.376L63.9556 22.7539C62.466 25.8449 59.1516 27.2228 55.9117 27.2228C50.9959 27.2228 46.974 23.6104 46.974 18.0989C46.974 12.5873 50.9959 9.08667 55.9117 9.08667C60.8274 9.08667 64.6259 12.5873 64.6259 18.0989ZM50.7725 16.721H60.8647C60.455 14.0024 58.5557 12.4383 55.9117 12.4383C53.2304 12.4383 51.1821 14.0396 50.7725 16.721Z" fill="#1E1E1E"></path>
  <path d="M76.5702 23.2753V26.8504H74.8944C70.1649 26.8504 68.5635 24.4297 68.5635 19.9981V12.6245H65.4353V9.45907H68.5635V5.28814H72.4365V9.45907H76.0861V12.6245H72.4365V19.9981C72.4365 21.7857 72.7345 23.2753 75.3413 23.2753H76.5702Z" fill="#1E1E1E"></path>
  <path d="M85.5574 19.8864L83.2113 19.3278C79.4872 18.3223 78.1465 16.4975 78.4072 13.6672C78.5934 11.0977 81.4609 9.08667 84.6264 9.08667C87.6801 9.08667 90.7711 10.5018 90.9573 14.2258H87.3077C87.1587 12.9224 85.967 12.3638 84.7754 12.3638C83.7699 12.3638 82.7271 12.7362 82.3175 13.3321C82.0196 13.8162 81.9823 14.3376 82.1685 14.8962C82.4292 15.6037 83.3602 15.9761 84.2912 16.2368L86.9725 16.9072C90.6966 17.8009 91.5159 20.2588 91.5159 21.9719C91.5159 25.3235 88.5739 27.2228 84.5891 27.2228C81.312 27.2228 78.0348 25.2118 77.9231 21.525H81.4609C81.6471 23.0146 82.8388 24.0201 84.8871 24.0201C86.6374 24.0201 87.978 23.238 87.978 21.9346C87.978 20.7802 86.8608 20.1843 85.5574 19.8864Z" fill="#1E1E1E"></path>
  <path d="M102.142 23.4987C105.047 23.4987 107.43 21.376 107.43 18.0989C107.43 14.9334 105.047 12.848 102.142 12.848C99.2744 12.848 96.891 14.9334 96.891 18.0989C96.891 21.376 99.2744 23.4987 102.142 23.4987ZM102.142 27.2228C97.2262 27.2228 93.0925 23.6104 93.0925 18.0989C93.0925 12.5873 97.2262 9.08667 102.142 9.08667C107.095 9.08667 111.266 12.5873 111.266 18.0989C111.266 23.6104 107.095 27.2228 102.142 27.2228Z" fill="#1E1E1E"></path>
  <path d="M112.914 18.0989C112.914 12.5873 117.197 9.08667 122.187 9.08667C124.98 9.08667 127.438 10.1666 129.077 12.1031L126.097 14.4865C125.166 13.4066 123.714 12.8107 122.187 12.8107C119.282 12.8107 116.713 14.8589 116.713 18.0989C116.713 21.3388 119.282 23.536 122.187 23.536C123.714 23.536 125.166 22.9029 126.097 21.8229L129.114 24.169C127.475 26.1056 125.017 27.2228 122.187 27.2228C117.197 27.2228 112.914 23.6104 112.914 18.0989Z" fill="#1E1E1E"></path>
  <path d="M135.47 9.45907V26.8504H131.671V9.45907H135.47ZM131.001 2.42063C131.001 1.04273 132.193 0 133.571 0C135.023 0 136.103 1.04273 136.103 2.42063C136.103 3.79853 135.023 4.84126 133.571 4.84126C132.193 4.84126 131.001 3.79853 131.001 2.42063Z" fill="#1E1E1E"></path>
  <path d="M152.902 26.8504V24.3552C151.71 26.2545 149.289 27.2228 147.055 27.2228C142.4 27.2228 138.229 23.6849 138.229 18.1361C138.229 12.5873 142.4 9.08667 147.055 9.08667C149.141 9.08667 151.71 9.9432 152.902 11.9169V9.45907H156.7V26.8504H152.902ZM142.177 18.0989C142.177 21.3015 144.634 23.4987 147.502 23.4987C150.332 23.4987 152.865 21.525 152.865 18.0989C152.865 14.71 150.109 12.8107 147.502 12.8107C144.634 12.8107 142.177 14.8962 142.177 18.0989Z" fill="#1E1E1E"></path>
  <path d="M160.586 26.8504V0H164.422V26.8504H160.586Z" fill="#1E1E1E"></path>
  <path d="M25.4293 27.2228H21.9465V9.46898L15.9909 18.5903L14.3047 15.5002L21.9465 3.79492H25.4293V27.2228Z" fill="#1E1E1E"></path>
</svg>
